Coordinates
version=1
nRows=27
nColumns=38
inDegrees=no

Units are S.I. units (second, meters, Newtons, ...)
If the header above contains a line with 'inDegrees', this indicates whether rotational values are in degrees (yes) or radians (no).

endheader
time	pelvis_tilt	pelvis_list	pelvis_rotation	pelvis_tx	pelvis_ty	pelvis_tz	hip_flexion_r	hip_adduction_r	hip_rotation_r	knee_angle_r	ankle_angle_r	subtalar_angle_r	mtp_angle_r	hip_flexion_l	hip_adduction_l	hip_rotation_l	knee_angle_l	ankle_angle_l	subtalar_angle_l	mtp_angle_l	lumbar_extension	lumbar_bending	lumbar_rotation	arm_flex_r	arm_add_r	arm_rot_r	elbow_flex_r	pro_sup_r	wrist_flex_r	wrist_dev_r	arm_flex_l	arm_add_l	arm_rot_l	elbow_flex_l	pro_sup_l	wrist_flex_l	wrist_dev_l
0	-2.86157	1.40363	-2.01521	0.751811	-0.511642	0.937727	-0.365681	-0.122561	-0.241901	0.452692	0.156917	0	0	0.155253	0.0951696	-0.426949	0.175226	-0.076783	0	0	-0.315402	-0.100293	0.21373	0.0210694	-0.317709	0.745113	0.373858	0.856727	0	0	0.0672851	-0.143333	0.0713541	0.263753	1.5708	0	0
0.01	-2.96064	1.42377	-1.8963	0.750058	-0.501078	0.937733	-0.326599	-0.10382	-0.261206	0.524959	0.12607	0	0	0.188026	0.0621181	-0.416689	0.239113	-0.043645	0	0	-0.30007	-0.0733388	0.201633	0.0158163	-0.316679	0.742378	0.372014	0.860463	0	0	0.065244	-0.14119	0.0692195	0.257438	1.5708	0	0
0.02	-2.94325	1.42359	-1.90624	0.748534	-0.489862	0.93879	-0.300285	-0.115927	-0.257312	0.585175	0.084599	0	0	0.182895	0.0669752	-0.409484	0.251443	-0.0346707	0	0	-0.296444	-0.0744127	0.195521	0.0103121	-0.316468	0.738875	0.37364	0.861339	0	0	0.062356	-0.140649	0.0679289	0.255592	1.5708	0	0
0.03	-2.91854	1.42793	-1.92355	0.746824	-0.478634	0.939189	-0.263775	-0.129226	-0.251781	0.651522	0.0352319	0	0	0.180736	0.0725948	-0.402664	0.259285	-0.0256485	0	0	-0.2871	-0.0745187	0.189866	0.00337564	-0.317151	0.734449	0.376935	0.862794	0	0	0.0584804	-0.140032	0.0668132	0.254457	1.5708	0	0
0.04	-2.88824	1.43361	-1.9471	0.745101	-0.467465	0.939288	-0.222625	-0.142942	-0.24298	0.718728	-0.022127	0	0	0.178184	0.0789619	-0.397507	0.262873	-0.0173539	0	0	-0.275639	-0.0746284	0.184859	-0.00433072	-0.318426	0.729565	0.380916	0.864804	0	0	0.053746	-0.140053	0.0677499	0.254342	1.5708	0	0
0.05	-2.84757	1.43958	-1.98184	0.743479	-0.456503	0.939147	-0.177705	-0.157412	-0.230347	0.786743	-0.0825497	0	0	0.17535	0.0863951	-0.393463	0.264157	-0.0106328	0	0	-0.26325	-0.0758403	0.180127	-0.0115093	-0.319417	0.723943	0.38454	0.866413	0	0	0.0476503	-0.141565	0.0720136	0.258014	1.5708	0	0
0.06	-2.79308	1.44382	-2.03157	0.742125	-0.445815	0.938958	-0.131686	-0.173025	-0.213876	0.853724	-0.143315	0	0	0.170941	0.0957911	-0.38868	0.264184	-0.00394614	0	0	-0.252061	-0.0795705	0.175524	-0.0173177	-0.319725	0.72053	0.387384	0.867498	0	0	0.0411436	-0.144808	0.0786794	0.264132	1.5708	0	0
0.07	-2.73181	1.44634	-2.08965	0.741	-0.435393	0.938707	-0.0851879	-0.188913	-0.194472	0.918875	-0.204109	0	0	0.160319	0.108252	-0.380687	0.253176	0.000657118	0	0	-0.242221	-0.0849861	0.171662	-0.0227464	-0.32029	0.716282	0.391901	0.868678	0	0	0.0347214	-0.14885	0.084667	0.270889	1.5708	0	0
0.08	-2.66856	1.44517	-2.15076	0.740458	-0.425554	0.938903	-0.0403714	-0.20404	-0.17211	0.98074	-0.265418	0	0	0.1574	0.116542	-0.379244	0.263742	0.0115838	0	0	-0.236978	-0.0936198	0.167785	-0.0253332	-0.318089	0.708613	0.393612	0.873331	0	0	0.0259692	-0.157321	0.101896	0.288353	1.5708	0	0
0.09	-2.70489	1.44246	-2.12059	0.7405	-0.417114	0.940991	-0.00448326	-0.229091	-0.188692	1.03243	-0.342734	0	0	0.110169	0.135798	-0.325707	0.193094	-0.0131412	0	0	-0.243972	-0.0925165	0.172648	-0.0224671	-0.319496	0.704902	0.395042	0.874682	0	0	0.0273418	-0.158016	0.10278	0.290876	1.5708	0	0
0.1	-2.68101	1.4444	-2.14152	0.73971	-0.407803	0.940962	0.0392419	-0.233153	-0.16347	1.08479	-0.384477	0	0	0.132544	0.121221	-0.369497	0.257886	0.0196705	0	0	-0.239988	-0.094089	0.168795	-0.0248331	-0.318919	0.693813	0.398499	0.884727	0	0	0.0227278	-0.16312	0.11279	0.301631	1.5708	0	0
0.11	-2.66106	1.44281	-2.16114	0.739204	-0.398605	0.941466	0.0878401	-0.240012	-0.1363	1.14443	-0.411379	0	0	0.128636	0.120796	-0.386043	0.273665	0.0324229	0	0	-0.239571	-0.0975804	0.16682	-0.0262182	-0.318266	0.684202	0.402179	0.893109	0	0	0.0202505	-0.167088	0.120311	0.308349	1.5708	0	0
0.12	-2.68063	1.43285	-2.1425	0.739072	-0.388959	0.943505	0.0998713	-0.240271	-0.116052	1.16622	-0.402816	0	0	0.0578058	0.156485	-0.30592	0.168335	-0.00482452	0	0	-0.248832	-0.101591	0.165266	-0.0262624	-0.316895	0.680429	0.404188	0.896211	0	0	0.019888	-0.169402	0.122041	0.308851	1.5708	0	0
0.13	-2.62549	1.42861	-2.18874	0.73807	-0.378563	0.943204	0.140449	-0.223603	-0.0614919	1.23732	-0.266248	0	0	0.0587345	0.15759	-0.334419	0.19748	0.0164841	0	0	-0.244442	-0.109971	0.154095	-0.0316649	-0.313391	0.672366	0.408851	0.906853	0	0	0.0128714	-0.17659	0.132495	0.318999	1.5708	0	0
0.14	-2.65175	1.41901	-2.16047	0.737146	-0.368758	0.945381	0.151594	-0.230935	-0.0511068	1.24133	-0.330728	0	0	0.00497202	0.179831	-0.2856	0.132484	-0.00666104	0	0	-0.253546	-0.111159	0.149904	-0.0333521	-0.313076	0.669445	0.411672	0.910942	0	0	0.0130558	-0.175928	0.134936	0.3171	1.5708	0	0
0.15	-2.58962	1.39768	-2.22362	0.737565	-0.361525	0.949057	0.209922	-0.243727	-0.0234498	1.38067	0.523599	0	0	0.0241618	0.169747	-0.399765	0.222305	0.0277867	0	0	-0.271778	-0.136075	0.144657	-0.0244783	-0.301379	0.657353	0.402045	0.928256	0	0	0.0258793	-0.178022	0.130409	0.305713	1.5708	0	0
0.16	-2.72411	1.4311	-2.07542	0.735184	-0.351995	0.946463	0.224321	-0.204985	-0.0316885	1.32303	-0.170721	0	0	0.0483746	0.128996	-0.385579	0.263222	0.0709059	0	0	-0.250466	-0.0918914	0.138758	-0.032906	-0.309917	0.65434	0.412474	0.934612	0	0	0.023643	-0.168637	0.125352	0.29695	1.5708	0	0
0.17	-2.73295	1.43996	-2.06007	0.735138	-0.344129	0.946273	0.282438	-0.189367	-0.0294828	1.40743	0.523599	0	0	0.0361119	0.126362	-0.390117	0.242401	0.0743334	0	0	-0.244251	-0.0867147	0.132139	-0.0299215	-0.304063	0.65183	0.409075	0.940253	0	0	0.0295895	-0.167599	0.115185	0.286339	1.5708	0	0
0.18	-2.75288	1.44142	-2.02397	0.731706	-0.336414	0.947616	0.284209	-0.197347	-0.0289853	1.35124	-0.114033	0	0	0.0102052	0.131906	-0.398437	0.20668	0.0651675	0	0	-0.248024	-0.0772862	0.11515	-0.0250422	-0.305138	0.6531	0.407117	0.942268	0	0	0.0368397	-0.160502	0.108168	0.275305	1.5708	0	0
0.19	-2.80093	1.44222	-1.96931	0.730478	-0.327908	0.94858	0.304007	-0.190366	-0.0264074	1.35415	-0.0902075	0	0	-0.0220164	0.136879	-0.371188	0.164494	0.0541905	0	0	-0.250267	-0.068672	0.108337	-0.0218721	-0.303954	0.656548	0.404191	0.942695	0	0	0.0429404	-0.155541	0.0926389	0.262543	1.5708	0	0
0.2	-2.854	1.43025	-1.9155	0.730508	-0.319052	0.951308	0.307302	-0.183773	-0.0191989	1.34671	-0.069377	0	0	-0.0366732	0.132256	-0.347341	0.189395	0.0665108	0	0	-0.264781	-0.0665323	0.106139	-0.0166987	-0.300077	0.660794	0.398528	0.942186	0	0	0.0472623	-0.155102	0.0863435	0.257695	1.5708	0	0
0.21	-2.89288	1.43153	-1.86462	0.727238	-0.310601	0.951896	0.318938	-0.200257	-0.0154035	1.31083	-0.154772	0	0	-0.0489593	0.131403	-0.324878	0.186402	0.0707049	0	0	-0.265689	-0.0549782	0.0941603	-0.0135796	-0.302074	0.665655	0.39688	0.941257	0	0	0.0497183	-0.151093	0.0813867	0.254557	1.5708	0	0
0.22	-2.93087	1.43103	-1.82055	0.728458	-0.303034	0.953115	0.338107	-0.170789	-0.0227524	1.32685	-0.0216937	0	0	-0.0641218	0.1242	-0.319075	0.180091	0.0739642	0	0	-0.269785	-0.0516988	0.0874018	-0.00549901	-0.296317	0.676613	0.391537	0.934696	0	0	0.0556492	-0.155256	0.0691901	0.251045	1.5708	0	0
0.23	-2.96563	1.43092	-1.77614	0.727398	-0.295168	0.954065	0.350043	-0.165786	-0.0270987	1.30851	0.00354351	0	0	-0.079944	0.120584	-0.309741	0.170495	0.075704	0	0	-0.272787	-0.0448088	0.0773535	0.00127956	-0.295477	0.689855	0.388699	0.925706	0	0	0.0588157	-0.156991	0.0638419	0.250882	1.5708	0	0
0.24	-2.97735	1.42962	-1.75388	0.725343	-0.287	0.954916	0.352984	-0.174849	-0.0342373	1.25938	-0.0995669	0	0	-0.0969812	0.122553	-0.295773	0.159654	0.0759361	0	0	-0.275396	-0.0395562	0.0662153	0.00612556	-0.297619	0.701317	0.388202	0.920132	0	0	0.0603309	-0.157766	0.0638897	0.252312	1.5708	0	0
0.25	-3.03099	1.42914	-1.69303	0.723454	-0.279259	0.955792	0.363074	-0.181731	-0.0344015	1.22809	-0.0718399	0	0	-0.111908	0.117199	-0.286392	0.152331	0.0773423	0	0	-0.278941	-0.0286703	0.0588192	0.0129321	-0.300249	0.716275	0.387304	0.91029	0	0	0.0618851	-0.158676	0.0663144	0.256214	1.5708	0	0
0.26	-3.07501	1.43081	-1.64651	0.725374	-0.272229	0.956475	0.379538	-0.145408	-0.0364804	1.22607	0.0713672	0	0	-0.120678	0.106204	-0.289812	0.150893	0.0839849	0	0	-0.280805	-0.0253208	0.0570675	0.0206356	-0.298792	0.738796	0.388784	0.886099	0	0	0.0644925	-0.167424	0.0739902	0.264081	1.5708	0	0
